<svg xmlns="http://www.w3.org/2000/svg" viewBox="0 0 352.9 362.28"><defs><linearGradient id="未命名漸層_3" x1="289.31" y1="159.98" x2="81.2" y2="159.98" gradientTransform="rotate(45 174.337 159.973)" gradientUnits="userSpaceOnUse"><stop offset="0" stop-color="#da3462"/><stop offset="1" stop-color="#cd382b"/></linearGradient><style>.cls-1{fill:none;stroke:#db364a;stroke-miterlimit:10;stroke-width:10px}.cls-3{fill:#112d81}.cls-4{font-size:25.89px;fill:#fff;font-family:GenShinGothic-Regular,Gen Shin Gothic}</style></defs><g id="圖層_2" data-name="圖層 2"><g id="圖層_1-2" data-name="圖層 1"><path class="cls-1" d="M174.08 117.66l107.33-66.43c19.81-13.6 47.15-7.16 59.92 13.47A44.25 44.25 0 01327 125.44l-104 64.42"/><path class="cls-1" d="M217.88 136l.46 177.34A44.27 44.27 0 01174 357.28 44.27 44.27 0 01130.09 313l-.45-177.51"/><path class="cls-1" d="M111 178.18l-85.46-53.9a44.25 44.25 0 01-13.77-60.86C24.71 42.9 52.1 36.7 73.45 50.47l86.67 54.67"/><circle cx="174.34" cy="159.98" r="79.93" transform="rotate(-45 174.347 159.983)" fill="url(#未命名漸層_3)"/><path class="cls-3" d="M196.08 141.41c-.64-2.65-1.27-5.14-2-7.46l5.62-1c.58 2.49 1.17 5.26 1.75 8.42h8.16v5.66h-21.3v-5.66zm1.32 30.07l-4.55 1.19c-1-7.52-2.12-16.17-3.5-23.12l4.77-.28c1.22 6.5 2.33 13.9 3.28 22.21zm6.78 1.02c-.76.25-1.56.48-2.39.7a40.55 40.55 0 01-4 .83c-3.24.68-6.52 1.25-9.85 1.65l1.33 5.66a191.25 191.25 0 0019.17-4.3v-5.76c-1.34.37-2.77.77-4.26 1.22zm.58-2.71c1.25-6.14 2.23-13.59 2.92-20.68h-5.35q-.92 11.51-2.75 22zm18.55-22.16h9.54l3.12-5.76h-12.66v-11.43l-5.62 2.16v24.36h-7.63v26.16h16.27v-5.48h-11.02V162.1h13.35v13.68h-.01v5.48h.01v1.9h5.3v-26.2h-10.65v-9.33zm-74.26 27.57c1.49 1.35 2.84 2.65 4 3.89l3.7-4.36c-1.37-1.4-3.06-2.9-5-4.55a35.05 35.05 0 01-2.7 5.02zm-.7-31.13l-1.14 5.38h2a48.24 48.24 0 01-3.69 15.91c-1.3-1-2.71-2-4.22-3.09a102.16 102.16 0 003.18-11l1.52-7.15c.5-2.82 1.05-5.84 1.6-9.1h-5.39c-.48 3.09-1 6.14-1.57 9.1h-5.94v5.38h4.79c-1.25 5.21-2.6 10.05-4.11 14.53q4.14 3.11 7.65 6.06c-1.37 2.16-4.75 5.81-7.39 6.77v6.95c4.31-2.26 8.78-6 10.78-9 4.22-6.27 7.59-12.06 8.11-27.7v-3zm23.81 12.19v-4.15a77.81 77.81 0 006.26-7.4H172a61.1 61.1 0 01-5.29 5.69v5.86h-9.06l-2 5.43h11.05v13.62c0 1.81-.47 2.72-1.36 2.72-2.55 0-2.15-.06-4.23-.11l-1.33 5.27h7.8c3 0 4.58-2.08 4.58-6.23v-15.27h9.21l1.72-5.43zm6.62-14.16l3.15-5.43H158.2v5.43h20.58zm-63.34 36.11h-5.77v-33.69h16.12v5.77h-10.35v27.92z"/><path class="cls-3" d="M109.66 163.34h9.22v5.5h-9.22zm9.47 9.47h9.22v5.5h-9.22z"/><path class="cls-3" d="M128.42 178.33h-5.77v-18.26h-3.08v-5.77h8.85v24.03z"/><text class="cls-4" transform="translate(38.52 88.3)">新板<tspan x="0" y="32.95">特區</tspan></text><text class="cls-4" transform="translate(148.6 284.74)">土城<tspan x="0" y="32.95">鴻海</tspan></text><text class="cls-4" transform="translate(274.25 84.61)">北市<tspan x="0" y="32.95">中心</tspan></text><path class="cls-1" d="M87.83 28.46C142.7-5.5 214.14-.81 262.4 31.09M108 314.36a161.93 161.93 0 01-95.35-170.31m321.41 5.19a162.12 162.12 0 01-98.84 166.35"/></g></g></svg>